# xmcd
#
# Track frame offsets:
#	150
#	14964
#	32018
#	48156
#	66647
#	82940
#	102191
#	122860
#	140214
#	153687
#	169350
#
# Disc length: 2490 seconds
#
# Revision: 1
# Processed by: cddbd v1.5.2PL0 Copyright (c) Steve Scherf et al.
# Submitted via: audiograbber 1.83.01
#
DISCID=a209b80b
DTITLE=Crooks and Straights - Just One Thing
DYEAR=2007
DGENRE=Country
TTITLE0=I Still Get The Thrill
TTITLE1=Neverending Song Of Love
TTITLE2=Georgia On A Fast Train
TTITLE3=Sliding Down
TTITLE4=The Crying Heart
TTITLE5=Don't Count On Me
TTITLE6=When I Called You Mine
TTITLE7=Is She Right
TTITLE8=Low and Lonely
TTITLE9=I'm Not Through Loving You Yet
TTITLE10=Hot Tele
EXTD=
EXTT0=
EXTT1=
EXTT2=
EXTT3=
EXTT4=
EXTT5=
EXTT6=
EXTT7=
EXTT8=
EXTT9=
EXTT10=
PLAYORDER=
